<svg width="65" height="21" viewBox="0 0 65 21" fill="none" xmlns="http://www.w3.org/2000/svg">
<path d="M7.93945 1.52344C7.99805 1.34115 8.11523 1.18815 8.29102 1.06445C8.47331 0.940755 8.66536 0.878906 8.86719 0.878906C9.08854 0.878906 9.28385 0.947266 9.45312 1.08398C9.62891 1.2207 9.74284 1.38021 9.79492 1.5625L12.793 11.1133L15.459 1.92383C15.5111 1.65039 15.625 1.41602 15.8008 1.2207C15.9831 1.01888 16.1849 0.917969 16.4062 0.917969C16.6862 0.917969 16.9173 1.03516 17.0996 1.26953C17.2884 1.50391 17.3828 1.7806 17.3828 2.09961C17.3828 2.22982 17.3665 2.34375 17.334 2.44141L13.7891 14.4824C13.7305 14.6777 13.6133 14.8405 13.4375 14.9707C13.2617 15.0944 13.0697 15.1562 12.8613 15.1562C12.666 15.1562 12.474 15.0977 12.2852 14.9805C12.1029 14.8568 11.9824 14.7005 11.9238 14.5117L8.83789 5.6543L5.57617 14.8047C5.47201 14.9089 5.3418 14.9935 5.18555 15.0586C5.03581 15.1237 4.85677 15.1562 4.64844 15.1562C4.4401 15.1562 4.24479 15.0944 4.0625 14.9707C3.88021 14.8405 3.75977 14.6777 3.70117 14.4824L0.283203 2.56836C0.257161 2.46419 0.244141 2.35026 0.244141 2.22656C0.244141 1.90755 0.335286 1.63086 0.517578 1.39648C0.70638 1.16211 0.940755 1.04492 1.2207 1.04492C1.44857 1.04492 1.65039 1.14909 1.82617 1.35742C2.00846 1.55924 2.1224 1.79688 2.16797 2.07031L4.73633 11.1719L7.93945 1.52344ZM22.832 4.33594C23.6979 4.33594 24.4922 4.55078 25.2148 4.98047C25.9375 5.41016 26.5169 5.98958 26.9531 6.71875C27.3958 7.44141 27.6172 8.24544 27.6172 9.13086C27.6172 9.31315 27.6074 9.4987 27.5879 9.6875C27.5618 9.92839 27.4512 10.1335 27.2559 10.3027C27.0671 10.4655 26.8522 10.5469 26.6113 10.5469L19.7852 10.5566C19.8958 11.0254 20.1042 11.4648 20.4102 11.875C20.7161 12.2852 21.0872 12.6172 21.5234 12.8711C21.9661 13.125 22.4479 13.252 22.9688 13.252C23.5286 13.252 24.0299 13.1152 24.4727 12.8418C24.9154 12.5684 25.2604 12.2526 25.5078 11.8945C25.5859 11.7708 25.7031 11.6667 25.8594 11.582C26.0221 11.4974 26.1751 11.4551 26.3184 11.4551C26.5853 11.4551 26.8132 11.5527 27.002 11.748C27.1973 11.9434 27.2949 12.1745 27.2949 12.4414C27.2949 12.6497 27.2363 12.8353 27.1191 12.998C26.7155 13.5905 26.1589 14.1048 25.4492 14.541C24.7461 14.9707 23.929 15.1855 22.998 15.1855C22.2493 15.1855 21.5527 15.0391 20.9082 14.7461C20.2702 14.4531 19.7135 14.0527 19.2383 13.5449C18.763 13.0371 18.3919 12.4544 18.125 11.7969C17.8646 11.1328 17.7344 10.4329 17.7344 9.69727C17.7344 8.98763 17.8646 8.3138 18.125 7.67578C18.3854 7.03125 18.7467 6.45833 19.209 5.95703C19.6777 5.45573 20.2214 5.06185 20.8398 4.77539C21.4583 4.48242 22.1224 4.33594 22.832 4.33594ZM25.6055 8.59375C25.4818 7.95573 25.1628 7.41211 24.6484 6.96289C24.1341 6.51367 23.5286 6.28906 22.832 6.28906C22.1224 6.28906 21.4941 6.52018 20.9473 6.98242C20.4069 7.44466 20.0423 7.98503 19.8535 8.60352L25.6055 8.59375ZM34.082 4.28711C35.013 4.28711 35.8561 4.49219 36.6113 4.90234C37.373 5.30599 37.9362 5.85286 38.3008 6.54297C38.3789 6.67969 38.418 6.83594 38.418 7.01172C38.418 7.27865 38.3203 7.50977 38.125 7.70508C37.9362 7.89388 37.7083 7.98828 37.4414 7.98828C37.2786 7.98828 37.1094 7.9362 36.9336 7.83203C36.7643 7.72135 36.6439 7.5944 36.5723 7.45117C36.3574 7.04753 36.0352 6.74479 35.6055 6.54297C35.1758 6.34115 34.6647 6.24023 34.0723 6.24023C33.7272 6.24023 33.3366 6.28581 32.9004 6.37695C32.4642 6.4681 32.0866 6.61458 31.7676 6.81641C31.4486 7.01823 31.2891 7.29167 31.2891 7.63672C31.2891 7.89062 31.4193 8.09245 31.6797 8.24219C31.9466 8.38542 32.2721 8.49609 32.6562 8.57422C33.0469 8.65234 33.4375 8.71094 33.8281 8.75C34.2188 8.78255 34.5378 8.81185 34.7852 8.83789C35.2669 8.88997 35.7422 8.97135 36.2109 9.08203C36.6797 9.1862 37.1094 9.34245 37.5 9.55078C37.8906 9.75911 38.1999 10.0423 38.4277 10.4004C38.6621 10.7585 38.7793 11.2142 38.7793 11.7676C38.7793 12.5553 38.5514 13.1999 38.0957 13.7012C37.64 14.2025 37.0573 14.5736 36.3477 14.8145C35.638 15.0553 34.8958 15.1758 34.1211 15.1758C33.0599 15.1758 32.0931 14.9674 31.2207 14.5508C30.3548 14.1276 29.7135 13.5124 29.2969 12.7051C29.2188 12.5488 29.1797 12.3958 29.1797 12.2461C29.1797 11.9792 29.2741 11.7513 29.4629 11.5625C29.6582 11.3672 29.8893 11.2695 30.1562 11.2695C30.3255 11.2695 30.4948 11.3249 30.6641 11.4355C30.8398 11.5397 30.9635 11.6667 31.0352 11.8164C31.2891 12.3112 31.6797 12.6693 32.207 12.8906C32.7409 13.112 33.3757 13.2227 34.1113 13.2227C34.502 13.2227 34.9056 13.1803 35.3223 13.0957C35.7454 13.0046 36.1003 12.8516 36.3867 12.6367C36.6797 12.4219 36.8262 12.1289 36.8262 11.7578C36.8262 11.4714 36.6992 11.2663 36.4453 11.1426C36.1979 11.0124 35.8984 10.9277 35.5469 10.8887C35.2018 10.8496 34.8796 10.8138 34.5801 10.7812C34.0072 10.7227 33.4147 10.6478 32.8027 10.5566C32.1908 10.459 31.6211 10.306 31.0938 10.0977C30.5729 9.88932 30.1497 9.58984 29.8242 9.19922C29.4987 8.80859 29.3359 8.28776 29.3359 7.63672C29.3359 7.05078 29.4759 6.54622 29.7559 6.12305C30.0423 5.69987 30.4199 5.35482 30.8887 5.08789C31.3574 4.81445 31.8685 4.61263 32.4219 4.48242C32.9818 4.35221 33.5352 4.28711 34.082 4.28711ZM41.6211 0.751953C41.9336 0.751953 42.1842 0.85612 42.373 1.06445C42.5618 1.26628 42.653 1.48763 42.6465 1.72852V14.3066C42.6465 14.5671 42.5423 14.7786 42.334 14.9414C42.1322 15.0977 41.9303 15.1758 41.7285 15.1758C41.4486 15.1758 41.2044 15.0846 40.9961 14.9023C40.7943 14.7201 40.6934 14.4857 40.6934 14.1992V1.72852C40.6934 1.48112 40.7812 1.25651 40.957 1.05469C41.1393 0.852865 41.3607 0.751953 41.6211 0.751953ZM49.2578 4.33594C50.1237 4.33594 50.918 4.55078 51.6406 4.98047C52.3633 5.41016 52.9427 5.98958 53.3789 6.71875C53.8216 7.44141 54.043 8.24544 54.043 9.13086C54.043 9.31315 54.0332 9.4987 54.0137 9.6875C53.9876 9.92839 53.877 10.1335 53.6816 10.3027C53.4928 10.4655 53.278 10.5469 53.0371 10.5469L46.2109 10.5566C46.3216 11.0254 46.5299 11.4648 46.8359 11.875C47.1419 12.2852 47.513 12.6172 47.9492 12.8711C48.3919 13.125 48.8737 13.252 49.3945 13.252C49.9544 13.252 50.4557 13.1152 50.8984 12.8418C51.3411 12.5684 51.6862 12.2526 51.9336 11.8945C52.0117 11.7708 52.1289 11.6667 52.2852 11.582C52.4479 11.4974 52.6009 11.4551 52.7441 11.4551C53.0111 11.4551 53.2389 11.5527 53.4277 11.748C53.623 11.9434 53.7207 12.1745 53.7207 12.4414C53.7207 12.6497 53.6621 12.8353 53.5449 12.998C53.1413 13.5905 52.5846 14.1048 51.875 14.541C51.1719 14.9707 50.3548 15.1855 49.4238 15.1855C48.6751 15.1855 47.9785 15.0391 47.334 14.7461C46.696 14.4531 46.1393 14.0527 45.6641 13.5449C45.1888 13.0371 44.8177 12.4544 44.5508 11.7969C44.2904 11.1328 44.1602 10.4329 44.1602 9.69727C44.1602 8.98763 44.2904 8.3138 44.5508 7.67578C44.8112 7.03125 45.1725 6.45833 45.6348 5.95703C46.1035 5.45573 46.6471 5.06185 47.2656 4.77539C47.8841 4.48242 48.5482 4.33594 49.2578 4.33594ZM52.0312 8.59375C51.9076 7.95573 51.5885 7.41211 51.0742 6.96289C50.5599 6.51367 49.9544 6.28906 49.2578 6.28906C48.5482 6.28906 47.9199 6.52018 47.373 6.98242C46.8327 7.44466 46.4681 7.98503 46.2793 8.60352L52.0312 8.59375ZM55.3613 4.24805C55.5501 4.24805 55.7259 4.30339 55.8887 4.41406C56.0579 4.52474 56.1784 4.66146 56.25 4.82422L59.5703 12.373L62.4121 4.89258C62.4837 4.7168 62.6009 4.57031 62.7637 4.45312C62.9329 4.33594 63.1185 4.27734 63.3203 4.27734C63.5872 4.27734 63.8151 4.375 64.0039 4.57031C64.1992 4.75911 64.2969 4.98698 64.2969 5.25391C64.2969 5.39062 64.2708 5.51758 64.2188 5.63477L60.625 15.0098C60.612 15.0944 60.5892 15.1693 60.5566 15.2344C60.5241 15.2995 60.4915 15.3581 60.459 15.4102L59.9121 16.7773C59.7754 17.1159 59.6126 17.474 59.4238 17.8516C59.235 18.2357 58.9746 18.597 58.6426 18.9355C58.3236 19.2676 57.9329 19.5475 57.4707 19.7754C57.015 20.0033 56.5365 20.1172 56.0352 20.1172C55.7617 20.1172 55.5306 20.0163 55.3418 19.8145C55.153 19.6191 55.0586 19.388 55.0586 19.1211C55.0586 18.8607 55.1465 18.6328 55.3223 18.4375C55.5046 18.2487 55.7227 18.151 55.9766 18.1445C56.5495 18.1055 56.9922 17.8809 57.3047 17.4707C57.6172 17.0671 57.8841 16.5885 58.1055 16.0352L58.5742 14.8438L54.4727 5.64453C54.4141 5.50781 54.3848 5.36784 54.3848 5.22461C54.3848 4.95768 54.4792 4.72982 54.668 4.54102C54.8633 4.3457 55.0944 4.24805 55.3613 4.24805Z" fill="#B9C1D4"/>
</svg>
